<svg aria-hidden="true" style="position: absolute; width: 0; height: 0; overflow: hidden;" version="1.1" xmlns="http://www.w3.org/2000/svg" xmlns:xlink="http://www.w3.org/1999/xlink">
<defs>
<symbol id="icon-logoDesk" viewBox="0 0 110 32">
<path d="M5.812 5.971l0.195 2.867 4.45 0.207-0.445 4.078-3.699 0.177 0.501 7.388h-6.813l0.64-20.687h11.319l0.389 5.97h-6.535z"></path>
<path d="M18.854 14.6l6.897-1.212-0.501 7.3h-11.819l-0.64-20.687h7.203l-1.14 14.599z"></path>
<path d="M38.864 15.014l0.389 5.674h-13.182l0.64-20.687h11.096l0.389 5.674h-6.396l0.083 2.896 5.034-0.266 0.278 4.256-5.2 0.266 0.056 2.689 6.813-0.502z"></path>
<path d="M39.371 0.001h6.646l2.002 6.236 1.474-6.236h6.452l-4.728 9.959 4.172 10.728h-6.174l-2.002-5.113-1.947 5.113h-4.95l3.476-9.723-4.422-10.964z"></path>
<path d="M63.057 20.688h-6.785l0.639-20.687h4.727l1.419 20.687z"></path>
<path d="M75.838 5.675h-5.645l-0.139 3.399 3.893-0.207 0.445 4.935-4.588 0.177-0.306 6.709h-5.172l-0.639-20.687h12.542l-0.389 5.674z"></path>
<path d="M77.198 0.001h5.284l-0.389 14.57 4.171 1.093 0.834-15.663h4.311l1.391 20.687h-16.241l0.64-20.687z"></path>
<path d="M103.156 0.001h6.563l-1.391 20.687h-3.643l-4.95-12.885-0.334 0.148-0.334 12.738h-4.951l-0.639-20.687h6.981l3.559 11.792-0.862-11.792z"></path>
<path d="M3.8 26.014v0.819h-2.845v1.596h2.328v0.819h-2.328v1.858h2.845v0.819h-3.623v-5.911h3.623z"></path>
<path d="M4.676 26.014h0.858l1.454 2.28 1.446-2.28h0.874l-1.883 2.955 1.883 2.955h-0.866l-1.446-2.271-1.454 2.28-0.858-0.008 1.875-2.955-1.883-2.955z"></path>
<path d="M13.573 27.737c0 1.486-1.589 1.807-2.566 1.841v2.347h-0.771v-5.911h0.532c0.953 0 2.805 0.093 2.805 1.723zM11.006 26.825v1.942c0.755 0 1.804-0.177 1.804-0.971 0-0.768-0.969-0.971-1.804-0.971z"></path>
<path d="M17.668 31.106v0.819h-3.711v-5.911h0.763v5.092h2.948z"></path>
<path d="M23.129 28.944c0 2.145-1.176 3.057-2.328 3.057-1.287 0-2.32-1.216-2.32-3.057 0-1.942 1.017-3.014 2.336-3.014 1.375 0 2.312 1.241 2.312 3.014zM19.291 28.944c0 1.275 0.66 2.178 1.51 2.178 0.826 0 1.526-0.87 1.526-2.178 0-0.98-0.485-2.204-1.51-2.204-1.017 0-1.526 1.106-1.526 2.204z"></path>
<path d="M24.615 26.825v1.942c0.747 0 1.796-0.177 1.796-0.971 0-0.768-0.969-0.971-1.796-0.971zM26.649 31.925l-1.549-2.381c-0.175 0.017-0.342 0.034-0.493 0.034v2.347h-0.771v-5.911h0.532c0.961 0 2.805 0.093 2.805 1.706 0 0.912-0.58 1.393-1.263 1.63l1.669 2.575h-0.93z"></path>
<path d="M31.742 26.014v0.819h-2.845v1.596h2.328v0.819h-2.328v1.858h2.845v0.819h-3.623v-5.911h3.623z"></path>
<path d="M34.697 28.53l3.854 0.008v0.811h-3.854v-0.819z"></path>
<path d="M44.843 27.737c0 1.486-1.589 1.807-2.566 1.841v2.347h-0.771v-5.911h0.532c0.953 0 2.805 0.093 2.805 1.723zM42.277 26.825v1.942c0.755 0 1.804-0.177 1.804-0.971 0-0.768-0.969-0.971-1.804-0.971z"></path>
<path d="M48.938 31.106v0.819h-3.711v-5.911h0.763v5.092h2.948z"></path>
<path d="M54.399 31.925h-0.794l-0.492-1.875h-2.114l-0.485 1.875h-0.81l1.557-5.911h1.589l1.55 5.911zM51.84 26.833l-0.627 2.398h1.684l-0.628-2.398h-0.429z"></path>
<path d="M57.664 31.925h-0.77v-2.888l-1.923-3.023h0.858l1.455 2.28 1.446-2.28h0.866l-1.931 3.040v2.871z"></path>
<path d="M62.166 28.53l3.854 0.008v0.811h-3.853v-0.819z"></path>
<path d="M72.558 31.106v0.819h-3.71v-5.911h0.763v5.092h2.948z"></path>
<path d="M77.025 26.014v0.819h-2.844v1.596h2.328v0.819h-2.328v1.858h2.844v0.819h-3.623v-5.911h3.623z"></path>
<path d="M82.582 31.925h-0.795l-0.493-1.875h-2.114l-0.484 1.875h-0.811l1.557-5.911h1.59l1.549 5.911zM80.023 26.833l-0.628 2.398h1.684l-0.627-2.398h-0.429z"></path>
<path d="M84.091 26.825v1.942c0.747 0 1.796-0.177 1.796-0.971 0-0.768-0.969-0.971-1.796-0.971zM86.125 31.925l-1.549-2.381c-0.174 0.017-0.341 0.034-0.493 0.034v2.347h-0.771v-5.911h0.532c0.962 0 2.805 0.093 2.805 1.706 0 0.912-0.58 1.393-1.263 1.63l1.668 2.575h-0.93z"></path>
<path d="M87.769 26.014h1.573l1.216 5.092h0.191v-5.092h0.771v5.911h-1.51l-1.263-5.092h-0.207v5.092h-0.771v-5.911z"></path>
</symbol>
<symbol id="icon-logoMob" viewBox="0 0 103 32">
<path d="M5.462 6.29l0.183 2.694 4.182 0.194-0.418 3.833-3.476 0.167 0.47 6.943h-6.403l0.601-19.442h10.637l0.366 5.61h-6.142z"></path>
<path d="M17.718 14.399l6.482-1.139-0.471 6.86h-11.107l-0.601-19.442h6.769l-1.072 13.72z"></path>
<path d="M36.524 14.788l0.366 5.333h-12.388l0.601-19.442h10.428l0.366 5.333h-6.011l0.078 2.722 4.73-0.25 0.261 3.999-4.887 0.25 0.052 2.527 6.403-0.472z"></path>
<path d="M37 0.679h6.246l1.882 5.86 1.385-5.86h6.063l-4.443 9.36 3.92 10.082h-5.802l-1.882-4.805-1.83 4.805h-4.652l3.267-9.137-4.155-10.304z"></path>
<path d="M59.259 20.121h-6.377l0.601-19.442h4.443l1.333 19.442z"></path>
<path d="M71.271 6.012h-5.305l-0.131 3.194 3.659-0.194 0.418 4.638-4.312 0.167-0.287 6.305h-4.861l-0.601-19.442h11.787l-0.366 5.333z"></path>
<path d="M72.549 0.679h4.966l-0.366 13.692 3.92 1.028 0.784-14.72h4.051l1.307 19.442h-15.263l0.601-19.442z"></path>
<path d="M96.943 0.679h6.168l-1.307 19.442h-3.424l-4.652-12.109-0.314 0.139-0.314 11.97h-4.652l-0.601-19.442h6.56l3.346 11.082-0.811-11.082z"></path>
<path d="M4.25 24.573v0.923h-3.206v1.799h2.624v0.923h-2.624v2.094h3.206v0.923h-4.083v-6.661h4.083z"></path>
<path d="M5.237 24.573h0.967l1.639 2.569 1.63-2.569h0.985l-2.122 3.331 2.122 3.331h-0.976l-1.63-2.56-1.639 2.569-0.967-0.009 2.113-3.331-2.122-3.331z"></path>
<path d="M15.264 26.515c0 1.675-1.791 2.037-2.892 2.075v2.645h-0.869v-6.661h0.6c1.075 0 3.161 0.105 3.161 1.941zM12.371 25.487v2.189c0.851 0 2.033-0.2 2.033-1.094 0-0.866-1.093-1.094-2.033-1.094z"></path>
<path d="M19.879 30.312v0.923h-4.182v-6.661h0.86v5.738h3.322z"></path>
<path d="M26.034 27.876c0 2.417-1.325 3.445-2.624 3.445-1.451 0-2.615-1.37-2.615-3.445 0-2.189 1.146-3.397 2.633-3.397 1.549 0 2.606 1.399 2.606 3.397zM21.709 27.876c0 1.437 0.743 2.455 1.701 2.455 0.931 0 1.719-0.98 1.719-2.455 0-1.104-0.546-2.484-1.701-2.484-1.146 0-1.719 1.247-1.719 2.484z"></path>
<path d="M27.709 25.487v2.189c0.842 0 2.024-0.2 2.024-1.094 0-0.866-1.093-1.094-2.024-1.094zM30.001 31.235l-1.746-2.684c-0.197 0.019-0.385 0.038-0.555 0.038v2.645h-0.869v-6.661h0.6c1.084 0 3.161 0.105 3.161 1.922 0 1.028-0.654 1.57-1.424 1.837l1.881 2.902h-1.048z"></path>
<path d="M35.741 24.573v0.923h-3.206v1.799h2.624v0.923h-2.624v2.094h3.206v0.923h-4.083v-6.661h4.083z"></path>
<path d="M39.072 27.409l4.343 0.009v0.914h-4.343v-0.923z"></path>
<path d="M50.506 26.515c0 1.675-1.791 2.037-2.892 2.075v2.645h-0.869v-6.661h0.6c1.075 0 3.161 0.105 3.161 1.941zM47.614 25.487v2.189c0.851 0 2.033-0.2 2.033-1.094 0-0.866-1.092-1.094-2.033-1.094z"></path>
<path d="M55.121 30.312v0.923h-4.182v-6.661h0.86v5.738h3.322z"></path>
<path d="M61.276 31.235h-0.895l-0.555-2.113h-2.382l-0.546 2.113h-0.913l1.755-6.661h1.791l1.746 6.661zM58.393 25.497l-0.707 2.703h1.898l-0.707-2.703h-0.484z"></path>
<path d="M64.956 31.235h-0.869v-3.255l-2.167-3.407h0.967l1.639 2.569 1.63-2.569h0.976l-2.176 3.426v3.236z"></path>
<path d="M70.029 27.409l4.343 0.009v0.914h-4.343v-0.923z"></path>
<path d="M81.741 30.312v0.923h-4.182v-6.661h0.86v5.738h3.322z"></path>
<path d="M86.776 24.573v0.923h-3.206v1.799h2.624v0.923h-2.624v2.094h3.206v0.923h-4.083v-6.661h4.083z"></path>
<path d="M93.037 31.235h-0.895l-0.556-2.113h-2.381l-0.547 2.113h-0.913l1.755-6.661h1.791l1.746 6.661zM90.154 25.497l-0.707 2.703h1.898l-0.708-2.703h-0.484z"></path>
<path d="M94.739 25.487v2.189c0.842 0 2.024-0.2 2.024-1.094 0-0.866-1.092-1.094-2.024-1.094zM97.031 31.235l-1.746-2.684c-0.197 0.019-0.385 0.038-0.556 0.038v2.645h-0.868v-6.661h0.6c1.084 0 3.161 0.105 3.161 1.922 0 1.028-0.653 1.57-1.423 1.837l1.88 2.902h-1.048z"></path>
<path d="M98.884 24.573h1.773l1.37 5.738h0.215v-5.738h0.868v6.661h-1.701l-1.424-5.738h-0.233v5.738h-0.868v-6.661z"></path>
</symbol>
<symbol id="icon-arrow_r" viewBox="0 0 31 32">
<path fill="#5390ec" style="fill: var(--color1, #5390ec)" d="M31.030 16c0 8.569-6.946 15.515-15.515 15.515s-15.515-6.946-15.515-15.515c0-8.569 6.946-15.515 15.515-15.515s15.515 6.946 15.515 15.515z"></path>
<path fill="#fff" style="fill: var(--color2, #fff)" d="M13.611 8.909l6.703 6.683c0.079 0.080 0.136 0.166 0.169 0.259s0.050 0.192 0.049 0.298c0 0.106-0.017 0.205-0.049 0.298s-0.089 0.179-0.169 0.259l-6.703 6.703c-0.186 0.186-0.418 0.279-0.696 0.279s-0.517-0.099-0.716-0.298c-0.199-0.199-0.298-0.431-0.298-0.696s0.1-0.497 0.298-0.696l5.848-5.848-5.848-5.848c-0.186-0.186-0.278-0.415-0.278-0.687s0.1-0.507 0.298-0.706c0.199-0.199 0.431-0.298 0.696-0.298s0.497 0.099 0.696 0.298z"></path>
</symbol>
<symbol id="icon-play" viewBox="0 0 32 32">
<path fill="none" stroke="#fff" style="stroke: var(--color1, #fff)" stroke-linejoin="miter" stroke-linecap="butt" stroke-miterlimit="4" stroke-width="0.5006" d="M24.438 16.088c0 4.639-3.761 8.4-8.4 8.4s-8.4-3.761-8.4-8.4c0-4.639 3.761-8.4 8.4-8.4s8.4 3.761 8.4 8.4z"></path>
<path fill="none" stroke="#fff" style="stroke: var(--color1, #fff)" stroke-linejoin="miter" stroke-linecap="butt" stroke-miterlimit="4" stroke-width="0.8343" d="M14.409 13.871l4.276 2.469-4.276 2.469v-4.938z"></path>
</symbol>
<symbol id="icon-arrow_slider" viewBox="0 0 19 32">
<path d="M1.771 15.135c-0.815 0.815-0.815 2.136 0 2.951l13.281 13.281c0.815 0.815 2.136 0.815 2.951 0s0.815-2.136 0-2.951l-11.806-11.806 11.806-11.806c0.815-0.815 0.815-2.136 0-2.951s-2.136-0.815-2.951 0l-13.281 13.281zM5.72 14.523h-2.473v4.174h2.473v-4.174z"></path>
</symbol>
<symbol id="icon-arrrow_quests" viewBox="0 0 17 32">
<path d="M13.653 11.399l-9.792-9.792c-0.4-0.397-0.94-0.62-1.504-0.62s-1.104 0.223-1.504 0.62c-0.2 0.198-0.359 0.434-0.467 0.694s-0.164 0.539-0.164 0.82c0 0.282 0.056 0.56 0.164 0.82s0.267 0.496 0.467 0.694l9.813 9.771c0.2 0.198 0.359 0.434 0.467 0.694s0.164 0.539 0.164 0.82c0 0.282-0.056 0.56-0.164 0.82s-0.267 0.496-0.467 0.694l-9.813 9.771c-0.402 0.399-0.629 0.941-0.631 1.507s0.221 1.11 0.62 1.512c0.399 0.402 0.941 0.628 1.507 0.631s1.11-0.221 1.512-0.62l9.792-9.792c1.199-1.2 1.872-2.827 1.872-4.523s-0.673-3.323-1.872-4.523v0z"></path>
</symbol>
<symbol id="icon-close" viewBox="0 0 32 32">
<path  d="M17.885 15.999l13.724-13.724c0.243-0.251 0.377-0.588 0.374-0.938s-0.143-0.684-0.39-0.931-0.582-0.387-0.931-0.39c-0.35-0.003-0.686 0.131-0.938 0.374l-13.724 13.724-13.724-13.724c-0.251-0.243-0.588-0.377-0.938-0.374s-0.684 0.143-0.931 0.39c-0.247 0.247-0.387 0.582-0.39 0.931s0.131 0.686 0.374 0.938l13.724 13.724-13.724 13.724c-0.25 0.25-0.39 0.589-0.39 0.943s0.14 0.693 0.39 0.943c0.25 0.25 0.589 0.39 0.943 0.39s0.693-0.14 0.943-0.39l13.724-13.724 13.724 13.724c0.25 0.25 0.589 0.39 0.943 0.39s0.693-0.14 0.943-0.39c0.25-0.25 0.39-0.589 0.39-0.943s-0.14-0.693-0.39-0.943l-13.724-13.724z"></path>
</symbol>
<symbol id="icon-load" viewBox="0 0 20 20">
<path d="M14.66 15.66c-1.448 1.45-3.449 2.346-5.66 2.346-4.418 0-8-3.582-8-8s3.582-8 8-8c4.416 0 7.996 3.578 8 7.993v0h-2c0-0.002 0-0.003 0-0.005 0-3.314-2.686-6-6-6s-6 2.686-6 6c0 3.314 2.686 6 6 6 1.656 0 3.154-0.671 4.24-1.755l-0 0 1.42 1.42zM12 10h8l-4 4-4-4z"></path>
</symbol>
<symbol id="icon-hero" viewBox="0 0 31 32">
<path fill="#5edd60" style="fill: var(--color1, #5edd60)" d="M15.36 30.848c8.2 0 14.848-6.648 14.848-14.848s-6.648-14.848-14.848-14.848c-8.2 0-14.848 6.648-14.848 14.848s6.648 14.848 14.848 14.848z"></path>
<path fill="#fff" style="fill: var(--color2, #fff)" d="M12.422 22.18l-3.482-3.401c-0.075-0.073-0.135-0.161-0.176-0.257s-0.062-0.201-0.062-0.306c0-0.105 0.021-0.209 0.062-0.306s0.101-0.184 0.176-0.258l1.155-1.126c0.155-0.15 0.362-0.234 0.578-0.234s0.423 0.084 0.578 0.234l2.073 2.026 5.813-8.837c0.12-0.178 0.305-0.303 0.515-0.348s0.43-0.006 0.612 0.108l1.374 0.863c0.090 0.055 0.167 0.128 0.229 0.214s0.104 0.183 0.127 0.286c0.023 0.103 0.025 0.209 0.006 0.313s-0.059 0.202-0.116 0.29l-6.883 10.467c-0.138 0.205-0.319 0.377-0.531 0.504s-0.449 0.207-0.694 0.233c-0.245 0.026-0.494-0.003-0.727-0.083s-0.447-0.211-0.624-0.383z"></path>
</symbol>
</defs>
</svg>
